<svg width="269" height="389" viewBox="0 0 269 389" fill="none" xmlns="http://www.w3.org/2000/svg">
    <path d="M252.05 276.51C248.11 272.28 248.38 266.51 245.53 261.85C240.24 244.43 220.53 239.14 208.46 227.39C202.08 224.88 195.46 223.39 189.46 220.13C180.22 216.82 172.07 212.2 165.46 203.89C158.26 194.64 168.99 186.32 168.72 176.68C167.77 173.51 171.98 174.57 172.66 172.19C172.79 164.66 178.91 157.14 174.29 150.01C176.74 139.18 168.59 131.26 165.06 122.15C157.31 116.21 152.29 104.06 141.97 102.47C136.139 104.088 129.941 103.765 124.31 101.55C120.24 102.73 114.54 101.55 111.96 104.98C108.271 106.637 104.765 108.675 101.5 111.06C100.96 113.17 97.8398 113.06 97.6898 115.54C98.9198 118.06 95.5298 119.54 96.0698 122.15C86.9698 130.99 83.2998 145.39 88.8698 157.01L86.5598 159.25C85.8798 165.32 90.2298 170.74 90.0898 176.68C90.4998 182.76 99.1898 177.47 99.5898 183.68C100.82 188.18 102.04 192.68 104.76 196.62C106.93 200.32 102.31 202.16 102.59 205.47C101.09 207.32 101.59 211.28 98.2398 210.88C92.8098 214.71 86.5598 217.62 80.0398 218.14C76.6498 219.07 72.0398 217.35 69.5898 220.39C64.4298 222.1 59.1298 224.74 53.9798 225.39C46.4998 229.61 37.9798 231.86 32.1098 239.39C28.4398 239.79 26.1098 243.22 23.2798 245.73C18.1198 256.03 18.6598 269.1 14.5898 279.67C15.1298 290.23 11.4698 299.08 7.65982 307.79C4.07982 312.32 1.9098 317.44 0.0498047 322.68V388.15H37.2698C36.3998 387.15 35.8598 385.96 36.7198 384.52C39.8398 383.19 44.0598 381.34 45.1398 377.52C50.3098 369.34 45.1398 359.43 45.8198 350.58C48.9498 349.14 50.5798 342.93 53.6998 346.22C55.5998 350.06 53.9798 354.28 54.9198 358.51C55.1898 362.21 54.9198 366.3 52.6098 369.34C53.3198 376.41 50.4498 382.07 48.6698 388.16H268.06V320.89C265.48 314.81 262.39 308.94 261.56 302.13C258 293.81 254.5 285.36 252.05 276.51ZM219.87 385.84C218.38 373.43 213.49 362.47 213.87 349.39L215.5 346.22C215.23 354.81 213.87 364.98 220.39 370.92C222.97 371.97 224.46 368.92 226.39 370.26C225 375.81 223.27 381.62 219.87 385.84Z" fill="black"/>
    </svg>
    