<svg width="269" height="389" viewBox="0 0 269 389" fill="none" xmlns="http://www.w3.org/2000/svg">
    <path d="M225.57 308.57C217.11 299.8 211.57 289.02 202.34 281.18C204.49 277.33 201.25 273.18 202.34 269.79C203.41 273.49 207.87 275.18 211.26 276.72L210.49 265.33L214.95 266.1C214.8 263.02 211.72 261.33 212.34 257.94C214.64 256.1 215.72 252.71 214.18 250.25C214.34 244.25 206.95 245.02 206.03 239.79C208.64 239.63 209.87 241.63 213.11 241.02C215.11 242.25 213.72 245.17 215.57 246.1C216.64 244.1 218.65 241.48 216.8 239.17C215.11 234.55 208.64 237.63 207.87 232.4C207.26 229.32 207.72 227.02 206.03 224.4C207.72 223.01 211.11 223.32 211.26 220.24C208.49 218.55 203.56 219.93 202.64 216.24C202.95 212.24 202.64 208.39 200.18 205.47C202.02 204.55 204.49 202.7 204.49 200.39C201.87 199.32 198.18 202.55 194.95 200.39C192.95 198.85 190.33 197 190.95 194.08C193.41 194.39 196.18 197.16 198.95 197C197.25 194.39 196.64 190.39 195.25 187C194.729 185.897 193.998 184.905 193.1 184.08C194.64 183 196.18 184.85 197.56 184.08C198.18 181.93 195.72 179.77 193.87 178.54C184.79 176.85 191.1 161.62 179.41 162.23C178.94 162.23 178.17 162.69 178.02 161.92C179.56 161.15 182.02 160.85 183.56 159C183.25 155.46 178.64 158.23 176.79 156.07C175.762 155.493 174.872 154.7 174.182 153.745C173.491 152.79 173.016 151.697 172.79 150.54C174.64 149.3 178.94 149.92 178.33 147.15C170.48 149.15 170.33 136.22 162.48 139.45C162.79 137.3 163.56 134.22 161.71 132.38C159.71 136.53 156.02 140.68 150.94 140.54L150.63 140.07C152.17 138.68 156.02 138.07 155.09 135.76C153.25 135.92 150.63 137 148.47 136.07C146.33 134.22 144.63 131.6 141.71 131.6C138.78 130.99 135.86 132.68 133.24 134.22C130.94 137.76 129.09 141.15 125.55 143.45C122.62 142.07 119.09 139.3 115.86 141.92C112.62 149 104.62 143.45 100 148.22C95.2401 153.15 91.6901 157.92 86.3101 162.22H82.0001C80.6201 160.53 83.39 156.68 80.16 157.45C75.85 160.53 82.77 169.61 74.16 167.76C72.0682 168.825 70.3902 170.556 69.3901 172.68V174.53C72.7801 173.3 76.63 172.07 80.17 172.68C80.78 175.3 76.9301 177.3 74.9301 178.53C73.5477 178.946 72.0856 179.023 70.6671 178.755C69.2487 178.487 67.9155 177.881 66.7801 176.99C66.4701 176.38 66.4701 175.61 65.7001 175.14C64.0101 174.99 64.47 176.84 63.85 177.76C63.23 180.07 64.62 181.92 66.47 182.99C67.85 183.3 69.24 183.76 70.47 184.07C67.39 186.07 64.1601 183.76 61.7001 181.92C60.0101 183.14 61.3901 184.99 62.0001 186.23C62.9301 188.38 68.3201 188.38 65.3901 191.46C63.0901 195.3 58.9301 198.69 54.6201 197.76C53.7001 198.69 55.7 199.92 56.47 200.38C57.0266 200.445 57.5552 200.659 58.0001 201C53.7001 205.46 51.5501 210.69 48.3101 215.46L49.3901 216.54L56.16 211.46C56.32 216.54 55.09 223.16 50.16 225.77C48 225.77 44.77 226.69 43.54 229.47C43.38 231.92 42.7701 234.39 45.3901 235.78C45.2301 232.69 46.62 228.69 50.16 228.69C51.7 228.08 53.5401 228.08 54.9301 227.62C57.0901 232.24 49.7001 233.77 48.3101 237.92C48.0001 241.16 45.8501 245.62 48.7701 248.39H49.3901C49.3901 243.16 50.16 236.7 56.16 235.78C57.23 236.85 55.7001 237.78 55.3901 238.7C51.5501 243.78 50.77 250.08 53.85 255.32C54.47 251.93 53.39 248.39 56.47 246.09C57.85 246.24 58.62 247.78 59.85 248.7C60.01 249.63 59.39 250.85 60.47 251.32C62 249.78 63.23 252.24 63.85 253.16C62.78 258.86 56.4701 259.78 52.7701 263.16C30.3101 285.63 18.0001 313.02 3.38007 339.16L0.810059 347.86V388.36H25.4501C24.6101 383.693 23.87 378.99 23.23 374.25C30.31 362.25 36.7701 349.32 46.9301 339.16C48.3101 351.47 59.55 359.94 60.47 372.4C61.25 377.69 61.95 383.02 62.47 388.4H178.68C174.98 381.4 181.04 375.29 180.44 367.98C182.6 355.66 196.6 352.59 203.37 342.9C219.37 351.66 237.54 357.05 250 371.67C247.689 377.451 244.934 383.044 241.76 388.4H268.82V342.92C254.89 330.84 237.8 324.33 225.57 308.57ZM203.11 247.94C207.72 250.09 206.03 254.71 206.8 259.02H205.72C203.11 256.1 202.79 251.64 203.11 247.94ZM193.41 191.16C192.35 189.939 191.533 188.527 191 187C193.41 186.39 194.49 190.24 193.41 191.16ZM143.24 138.68C142.78 135.61 146.47 139.61 148.02 140.07C147.172 140.285 146.281 140.27 145.441 140.026C144.6 139.781 143.841 139.317 143.24 138.68Z" fill="black"/>
    </svg>
    