<svg width="506" height="153" viewBox="0 0 506 153" fill="none" xmlns="http://www.w3.org/2000/svg">
    <rect width="43.6651" height="99.4593" fill="white"/>
    <rect x="94.6077" width="77.6268" height="92.1818" rx="19.4067" transform="rotate(90 94.6077 0)" fill="white"/>
    <rect x="203.77" width="43.6651" height="99.4593" fill="white"/>
    <rect x="298.378" width="77.6268" height="92.1818" rx="19.4067" transform="rotate(90 298.378 0)" fill="white"/>
    <rect x="101.885" width="43.6651" height="99.4593" fill="white"/>
    <rect x="152.828" width="43.6651" height="99.4593" fill="white"/>
    <rect x="184.364" y="38.8135" width="24.2584" height="72.7751" transform="rotate(90 184.364 38.8135)" fill="white"/>
    <path d="M12.0807 143.246C8.92708 143.246 6.42847 142.373 4.58483 140.626C2.7412 138.855 1.81938 136.333 1.81938 133.058V126.945C1.81938 123.67 2.7412 121.159 4.58483 119.412C6.42847 117.642 8.92708 116.756 12.0807 116.756C15.21 116.756 17.6237 117.617 19.3218 119.34C21.0441 121.038 21.9053 123.379 21.9053 126.362V126.581H17.1749V126.217C17.1749 124.713 16.7504 123.476 15.9014 122.505C15.0766 121.535 13.803 121.05 12.0807 121.05C10.3826 121.05 9.04837 121.571 8.07804 122.614C7.1077 123.658 6.62254 125.077 6.62254 126.872V133.131C6.62254 134.901 7.1077 136.32 8.07804 137.388C9.04837 138.431 10.3826 138.953 12.0807 138.953C13.803 138.953 15.0766 138.467 15.9014 137.497C16.7504 136.502 17.1749 135.265 17.1749 133.785V133.131H21.9053V133.64C21.9053 136.624 21.0441 138.977 19.3218 140.699C17.6237 142.397 15.21 143.246 12.0807 143.246ZM67.0097 143.246C63.8076 143.246 61.2604 142.373 59.3683 140.626C57.4761 138.855 56.5301 136.333 56.5301 133.058V126.945C56.5301 123.67 57.4761 121.159 59.3683 119.412C61.2604 117.642 63.8076 116.756 67.0097 116.756C70.2118 116.756 72.7589 117.642 74.6511 119.412C76.5432 121.159 77.4893 123.67 77.4893 126.945V133.058C77.4893 136.333 76.5432 138.855 74.6511 140.626C72.7589 142.373 70.2118 143.246 67.0097 143.246ZM67.0097 138.953C68.8048 138.953 70.1997 138.431 71.1942 137.388C72.1888 136.345 72.6861 134.95 72.6861 133.203V126.799C72.6861 125.052 72.1888 123.658 71.1942 122.614C70.1997 121.571 68.8048 121.05 67.0097 121.05C65.2388 121.05 63.844 121.571 62.8251 122.614C61.8305 123.658 61.3332 125.052 61.3332 126.799V133.203C61.3332 134.95 61.8305 136.345 62.8251 137.388C63.844 138.431 65.2388 138.953 67.0097 138.953ZM112.996 142.737V117.266H122.129L127.187 139.462H127.842V117.266H132.572V142.737H123.439L118.381 120.54H117.726V142.737H112.996ZM168.666 142.737V117.266H184.676V121.632H173.469V127.782H183.803V132.148H173.469V142.737H168.666ZM219.397 142.737V117.266H235.771V121.632H224.2V127.709H234.752V132.075H224.2V138.37H235.989V142.737H219.397ZM270.838 142.737V117.266H281.9C283.501 117.266 284.896 117.544 286.084 118.102C287.273 118.66 288.195 119.449 288.85 120.468C289.505 121.486 289.832 122.687 289.832 124.07V124.507C289.832 126.035 289.468 127.272 288.741 128.218C288.013 129.164 287.115 129.856 286.048 130.292V130.947C287.018 130.996 287.77 131.335 288.304 131.966C288.838 132.573 289.105 133.385 289.105 134.404V142.737H284.301V135.095C284.301 134.513 284.144 134.04 283.828 133.676C283.537 133.312 283.04 133.131 282.336 133.131H275.641V142.737H270.838ZM275.641 128.764H281.39C282.531 128.764 283.416 128.461 284.047 127.854C284.702 127.224 285.029 126.399 285.029 125.38V125.016C285.029 123.997 284.714 123.185 284.083 122.578C283.452 121.947 282.555 121.632 281.39 121.632H275.641V128.764ZM325.122 142.737V117.266H341.497V121.632H329.925V127.709H340.478V132.075H329.925V138.37H341.715V142.737H325.122ZM376.564 142.737V117.266H385.697L390.755 139.462H391.41V117.266H396.14V142.737H387.007L381.949 120.54H381.294V142.737H376.564ZM441.913 143.246C438.759 143.246 436.261 142.373 434.417 140.626C432.574 138.855 431.652 136.333 431.652 133.058V126.945C431.652 123.67 432.574 121.159 434.417 119.412C436.261 117.642 438.759 116.756 441.913 116.756C445.042 116.756 447.456 117.617 449.154 119.34C450.876 121.038 451.738 123.379 451.738 126.362V126.581H447.007V126.217C447.007 124.713 446.583 123.476 445.734 122.505C444.909 121.535 443.635 121.05 441.913 121.05C440.215 121.05 438.881 121.571 437.91 122.614C436.94 123.658 436.455 125.077 436.455 126.872V133.131C436.455 134.901 436.94 136.32 437.91 137.388C438.881 138.431 440.215 138.953 441.913 138.953C443.635 138.953 444.909 138.467 445.734 137.497C446.583 136.502 447.007 135.265 447.007 133.785V133.131H451.738V133.64C451.738 136.624 450.876 138.977 449.154 140.699C447.456 142.397 445.042 143.246 441.913 143.246ZM486.945 142.737V117.266H503.319V121.632H491.748V127.709H502.3V132.075H491.748V138.37H503.537V142.737H486.945Z" fill="white"/>
    <path fill-rule="evenodd" clip-rule="evenodd" d="M445.471 99.4593L430.165 84.1538V15.3056L445.471 0H490.469L505.775 15.3055V35.6342H482.065V26.5621L479.28 23.7771H456.625L453.874 26.6649V72.965L456.592 75.6822H479.28L482.065 72.8972V66.8015H463.297V43.0921H505.775V84.1538L490.469 99.4593H445.471ZM484.367 64.5002V73.8504L480.233 77.9834H455.638L451.573 73.9182V25.7444L455.638 21.4759H480.233L484.367 25.6089V33.333H503.473V16.2588L489.516 2.30124H446.424L432.466 16.2588V83.2006L446.424 97.1581H489.516L503.473 83.2006V45.3934H465.598V64.5002H484.367Z" fill="white"/>
    <path fill-rule="evenodd" clip-rule="evenodd" d="M312.933 99.4593V0H354.645L365.779 65.4206L376.914 0H418.558V99.4593H394.781V33.0908L384.724 91.3288H346.833L336.71 32.3668V99.4593H312.933ZM337.187 21.5436L348.773 89.0275H382.786L394.44 21.5436H397.082V97.1581H416.257V2.30124H378.856L367.406 69.5818H364.153L352.703 2.30124H315.234V97.1581H334.409V21.5436H337.187Z" fill="white"/>
    </svg>
    