<svg width="120" height="88" viewBox="0 0 120 88" fill="none" xmlns="http://www.w3.org/2000/svg">
    <path d="M105.082 41.7346C96.8604 41.7346 90.1721 48.3416 90.1721 57.145V83.2124L97.9099 81.8025V73.2119C97.9099 73.2119 102.293 72.4446 105.082 71.9464C114.978 70.1786 120.217 64.3547 119.993 56.0908C119.749 47.0845 112.04 41.7346 105.082 41.7346ZM112.396 56.6654C112.172 61.6163 108.852 63.4538 104.882 64.1915C100.954 64.9213 97.9092 65.3906 97.9092 65.3906V56.5657C97.9092 52.6999 101.04 49.5452 104.882 49.3926C108.961 49.2306 112.591 52.3857 112.396 56.6654Z" fill="#6D36FB"/>
    <path d="M79.6976 48.6195V75.6124L87.3133 74.2651V47.266L79.6976 48.6195Z" fill="#6D36FB"/>
    <path d="M87.881 41.0449C88.8819 38.6149 87.7344 35.829 85.3178 34.8225C82.9013 33.816 80.1308 34.9699 79.1298 37.3999C78.1288 39.8299 79.2764 42.6157 81.693 43.6223C84.1095 44.6288 86.88 43.4749 87.881 41.0449Z" fill="#6D36FB"/>
    <path d="M62.3654 49.3867C60.3452 49.3856 58.3472 49.8097 56.4998 50.6318C54.6525 51.454 52.9968 52.6559 51.6392 54.1602C50.2817 55.6646 49.2523 57.4381 48.6175 59.3666C47.9826 61.2951 47.7563 63.3359 47.9531 65.3576C48.1499 67.3794 48.7654 69.3373 49.7601 71.1054C50.7547 72.8736 52.1065 74.4127 53.7283 75.6239C55.3502 76.835 57.2062 77.6913 59.1771 78.1377C61.1479 78.584 63.1898 78.6106 65.1714 78.2155L65.1705 78.2199L76.8239 76.1248C76.8239 76.1248 76.8383 64.1318 76.8383 63.94C76.834 60.0816 75.3078 56.3824 72.5945 53.6541C69.8813 50.9258 66.2025 49.3911 62.3654 49.3867ZM69.6631 70.459L63.7799 71.5152V71.5131C62.3045 71.8062 60.7751 71.6338 59.4009 71.0193C58.0267 70.4049 56.8748 69.3786 56.1029 68.0807C55.331 66.7828 54.9768 65.2768 55.0886 63.7687C55.2005 62.2606 55.7731 60.8241 56.7279 59.6557C57.6828 58.4874 58.9733 57.6442 60.423 57.2416C61.8726 56.8391 63.4106 56.8967 64.8264 57.4067C66.2422 57.9167 67.4668 58.8541 68.3325 60.0907C69.1982 61.3273 69.6628 62.8027 69.6627 64.315L69.6631 70.459Z" fill="#6D36FB"/>
    <path d="M45.7018 51.6841C37.9586 52.2621 31.8323 58.7776 31.8323 66.7094V83.6857L39.483 82.3345V66.7094C39.483 63.0915 42.233 59.9835 45.7018 59.4229V51.6841Z" fill="#6D36FB"/>
    <path d="M14.9199 57.7003C14.2094 57.7007 13.4999 57.7521 12.7967 57.8543L12.8006 57.8518L12.7451 57.8619C12.4276 57.9089 12.1134 57.9659 11.8024 58.033L7.61558 58.7927V47.8535L0 49.209V72.7034C4.99657e-05 75.6707 0.87513 78.5713 2.51458 81.0384C4.15404 83.5056 6.48423 85.4285 9.21049 86.564C11.9368 87.6995 14.9366 87.9966 17.8308 87.4177C20.725 86.8387 23.3834 85.4098 25.47 83.3116C27.5566 81.2134 28.9775 78.5402 29.5532 75.6299C30.1289 72.7197 29.8334 69.7031 28.7041 66.9617C27.5749 64.2203 25.6625 61.8772 23.209 60.2287C20.7554 58.5802 17.8708 57.7003 14.9199 57.7003ZM14.905 80.0624C12.9649 80.0562 11.1064 79.2764 9.73727 77.8941C8.36816 76.5118 7.60022 74.6398 7.60194 72.6889C7.60194 72.5919 7.60586 72.4958 7.60977 72.3997L7.62165 66.5279L13.516 65.4807V65.4828C14.5182 65.2857 15.5503 65.3016 16.5459 65.5296C17.5415 65.7576 18.4787 66.1926 19.2971 66.8066C20.1155 67.4207 20.7971 68.2002 21.298 69.095C21.7988 69.9898 22.1079 70.9801 22.2053 72.0022C22.3027 73.0243 22.1863 74.0557 21.8636 75.0298C21.5408 76.004 21.0189 76.8995 20.3313 77.6586C19.6438 78.4178 18.8058 79.0239 17.8714 79.4379C16.9369 79.8518 15.9267 80.0646 14.9055 80.0624H14.905Z" fill="#6D36FB"/>
    <path d="M13.408 20.2V9.224H14.336V10.648H14.528C14.752 10.2213 15.0987 9.84267 15.568 9.512C16.048 9.17067 16.7147 9 17.568 9C18.2613 9 18.8907 9.16533 19.456 9.496C20.0213 9.816 20.4693 10.2747 20.8 10.872C21.1413 11.4693 21.312 12.184 21.312 13.016V13.208C21.312 14.0293 21.1467 14.744 20.816 15.352C20.4853 15.9493 20.0373 16.4133 19.472 16.744C18.9067 17.064 18.272 17.224 17.568 17.224C17.0027 17.224 16.5173 17.1493 16.112 17C15.7173 16.84 15.392 16.6373 15.136 16.392C14.8907 16.1467 14.6987 15.896 14.56 15.64H14.368V20.2H13.408ZM17.344 16.36C18.2293 16.36 18.944 16.0773 19.488 15.512C20.0427 14.9467 20.32 14.168 20.32 13.176V13.048C20.32 12.056 20.0427 11.2773 19.488 10.712C18.944 10.1467 18.2293 9.864 17.344 9.864C16.4693 9.864 15.7547 10.1467 15.2 10.712C14.6453 11.2773 14.368 12.056 14.368 13.048V13.176C14.368 14.168 14.6453 14.9467 15.2 15.512C15.7547 16.0773 16.4693 16.36 17.344 16.36ZM27.3038 17.224C26.5144 17.224 25.8211 17.0587 25.2238 16.728C24.6371 16.3867 24.1784 15.9173 23.8478 15.32C23.5278 14.712 23.3678 14.008 23.3678 13.208V13.016C23.3678 12.216 23.5278 11.5173 23.8478 10.92C24.1784 10.312 24.6371 9.84267 25.2238 9.512C25.8211 9.17067 26.5144 9 27.3038 9C28.0931 9 28.7811 9.17067 29.3678 9.512C29.9651 9.84267 30.4238 10.312 30.7438 10.92C31.0744 11.5173 31.2398 12.216 31.2398 13.016V13.208C31.2398 14.008 31.0744 14.712 30.7438 15.32C30.4238 15.9173 29.9651 16.3867 29.3678 16.728C28.7811 17.0587 28.0931 17.224 27.3038 17.224ZM27.3038 16.36C28.2211 16.36 28.9464 16.072 29.4798 15.496C30.0131 14.9093 30.2798 14.136 30.2798 13.176V13.048C30.2798 12.088 30.0131 11.32 29.4798 10.744C28.9464 10.1573 28.2211 9.864 27.3038 9.864C26.3971 9.864 25.6718 10.1573 25.1278 10.744C24.5944 11.32 24.3278 12.088 24.3278 13.048V13.176C24.3278 14.136 24.5944 14.9093 25.1278 15.496C25.6718 16.072 26.3971 16.36 27.3038 16.36ZM34.7505 17L32.9905 9.224H33.9825L35.5185 16.36H35.7105L37.7105 9.224H39.3425L41.3425 16.36H41.5345L43.0705 9.224H44.0625L42.3025 17H40.6225L38.6225 9.864H38.4305L36.4305 17H34.7505ZM49.7733 17.224C48.9733 17.224 48.2746 17.0587 47.6773 16.728C47.0906 16.3867 46.6319 15.912 46.3013 15.304C45.9706 14.696 45.8053 13.9973 45.8053 13.208V13.016C45.8053 12.216 45.9706 11.5173 46.3013 10.92C46.6319 10.312 47.0853 9.84267 47.6613 9.512C48.2479 9.17067 48.9146 9 49.6613 9C50.3866 9 51.0266 9.15467 51.5813 9.464C52.1466 9.76267 52.5893 10.2 52.9093 10.776C53.2293 11.3413 53.3893 12.0187 53.3893 12.808V13.32H46.7653C46.7973 14.2907 47.0906 15.0427 47.6453 15.576C48.2106 16.0987 48.9199 16.36 49.7733 16.36C50.4986 16.36 51.0586 16.1947 51.4533 15.864C51.8586 15.5333 52.1679 15.128 52.3813 14.648L53.2453 15.032C53.0853 15.384 52.8613 15.7307 52.5733 16.072C52.2959 16.4027 51.9333 16.68 51.4853 16.904C51.0373 17.1173 50.4666 17.224 49.7733 17.224ZM46.7812 12.488H52.4133C52.3706 11.6453 52.0986 11 51.5973 10.552C51.0959 10.0933 50.4506 9.864 49.6613 9.864C48.8826 9.864 48.2373 10.0933 47.7253 10.552C47.2133 11 46.8986 11.6453 46.7812 12.488ZM55.7518 17V9.224H56.6798V10.2H56.8718C57.0211 9.848 57.2398 9.592 57.5278 9.432C57.8264 9.272 58.2371 9.192 58.7598 9.192H59.6718V10.088H58.6478C58.0611 10.088 57.5918 10.2533 57.2398 10.584C56.8878 10.9147 56.7118 11.432 56.7118 12.136V17H55.7518ZM64.9608 17.224C64.1608 17.224 63.4621 17.0587 62.8648 16.728C62.2781 16.3867 61.8194 15.912 61.4888 15.304C61.1581 14.696 60.9928 13.9973 60.9928 13.208V13.016C60.9928 12.216 61.1581 11.5173 61.4888 10.92C61.8194 10.312 62.2728 9.84267 62.8488 9.512C63.4354 9.17067 64.1021 9 64.8488 9C65.5741 9 66.2141 9.15467 66.7688 9.464C67.3341 9.76267 67.7768 10.2 68.0968 10.776C68.4168 11.3413 68.5768 12.0187 68.5768 12.808V13.32H61.9528C61.9848 14.2907 62.2781 15.0427 62.8328 15.576C63.3981 16.0987 64.1074 16.36 64.9608 16.36C65.6861 16.36 66.2461 16.1947 66.6408 15.864C67.0461 15.5333 67.3554 15.128 67.5688 14.648L68.4328 15.032C68.2728 15.384 68.0488 15.7307 67.7608 16.072C67.4834 16.4027 67.1208 16.68 66.6728 16.904C66.2248 17.1173 65.6541 17.224 64.9608 17.224ZM61.9688 12.488H67.6008C67.5581 11.6453 67.2861 11 66.7848 10.552C66.2834 10.0933 65.6381 9.864 64.8488 9.864C64.0701 9.864 63.4248 10.0933 62.9128 10.552C62.4008 11 62.0861 11.6453 61.9688 12.488ZM74.2993 17.224C73.6059 17.224 72.9766 17.064 72.4113 16.744C71.8459 16.4133 71.3926 15.9493 71.0513 15.352C70.7206 14.744 70.5553 14.0293 70.5553 13.208V13.016C70.5553 12.1947 70.7206 11.4853 71.0513 10.888C71.3819 10.28 71.8299 9.816 72.3953 9.496C72.9713 9.16533 73.6059 9 74.2993 9C74.8753 9 75.3606 9.08 75.7553 9.24C76.1499 9.38933 76.4699 9.58667 76.7153 9.832C76.9713 10.0667 77.1686 10.3173 77.3073 10.584H77.4993V5.8H78.4593V17H77.5312V15.576H77.3393C77.1153 16.0027 76.7633 16.3867 76.2833 16.728C75.8139 17.0587 75.1526 17.224 74.2993 17.224ZM74.5233 16.36C75.4086 16.36 76.1233 16.0773 76.6673 15.512C77.2219 14.9467 77.4993 14.168 77.4993 13.176V13.048C77.4993 12.056 77.2219 11.2773 76.6673 10.712C76.1233 10.1467 75.4086 9.864 74.5233 9.864C73.6486 9.864 72.9339 10.1467 72.3793 10.712C71.8246 11.2773 71.5473 12.056 71.5473 13.048V13.176C71.5473 14.168 71.8246 14.9467 72.3793 15.512C72.9339 16.0773 73.6486 16.36 74.5233 16.36ZM89.568 17.224C88.7147 17.224 88.048 17.0587 87.568 16.728C87.0987 16.3867 86.752 16.0027 86.528 15.576H86.336V17H85.408V5.8H86.368V10.584H86.56C86.6987 10.3173 86.8907 10.0667 87.136 9.832C87.392 9.58667 87.7173 9.38933 88.112 9.24C88.5173 9.08 89.0027 9 89.568 9C90.272 9 90.9067 9.16533 91.472 9.496C92.0373 9.816 92.4853 10.28 92.816 10.888C93.1467 11.4853 93.312 12.1947 93.312 13.016V13.208C93.312 14.0293 93.1413 14.744 92.8 15.352C92.4693 15.9493 92.0213 16.4133 91.456 16.744C90.8907 17.064 90.2613 17.224 89.568 17.224ZM89.344 16.36C90.2293 16.36 90.944 16.0773 91.488 15.512C92.0427 14.9467 92.32 14.168 92.32 13.176V13.048C92.32 12.056 92.0427 11.2773 91.488 10.712C90.944 10.1467 90.2293 9.864 89.344 9.864C88.4693 9.864 87.7547 10.1467 87.2 10.712C86.6453 11.2773 86.368 12.056 86.368 13.048V13.176C86.368 14.168 86.6453 14.9467 87.2 15.512C87.7547 16.0773 88.4693 16.36 89.344 16.36ZM96.7278 20.2V19.336H101.272C101.592 19.336 101.752 19.176 101.752 18.856V15.656H101.56C101.432 15.912 101.25 16.1573 101.016 16.392C100.792 16.616 100.493 16.8027 100.12 16.952C99.7571 17.0907 99.2984 17.16 98.7438 17.16C98.1891 17.16 97.6718 17.0427 97.1918 16.808C96.7224 16.5733 96.3438 16.2213 96.0558 15.752C95.7784 15.2827 95.6398 14.6907 95.6398 13.976V9.224H96.5998V13.912C96.5998 14.7547 96.8131 15.3627 97.2398 15.736C97.6664 16.1093 98.2371 16.296 98.9518 16.296C99.7518 16.296 100.418 16.0347 100.952 15.512C101.485 14.9893 101.752 14.1947 101.752 13.128V9.224H102.712V18.984C102.712 19.368 102.605 19.6667 102.392 19.88C102.189 20.0933 101.88 20.2 101.464 20.2H96.7278Z" fill="white"/>
    </svg>
    