<svg width="147" height="22" viewBox="0 0 147 22" fill="none" xmlns="http://www.w3.org/2000/svg">
    <path d="M141.405 3.27539C138.323 3.27539 135.814 5.753 135.814 9.0543V18.8295L138.716 18.3008V15.0794C138.716 15.0794 140.36 14.7916 141.405 14.6048C145.116 13.9419 147.081 11.7579 146.997 8.65896C146.906 5.28159 144.015 3.27539 141.405 3.27539ZM144.149 8.87444C144.064 10.731 142.819 11.4201 141.331 11.6967C139.858 11.9704 138.716 12.1464 138.716 12.1464V8.83705C138.716 7.38738 139.89 6.20436 141.331 6.14715C142.86 6.08637 144.221 7.26954 144.149 8.87444Z" fill="white"/>
    <path d="M131.887 5.8574V15.9797L134.743 15.4745V5.34984L131.887 5.8574Z" fill="white"/>
    <path d="M134.955 3.01692C135.331 2.10568 134.9 1.06098 133.994 0.68353C133.088 0.30608 132.049 0.738807 131.674 1.65005C131.298 2.5613 131.729 3.60599 132.635 3.98344C133.541 4.36089 134.58 3.92817 134.955 3.01692Z" fill="white"/>
    <path d="M125.387 6.14502C124.629 6.14459 123.88 6.30363 123.187 6.61193C122.495 6.92023 121.874 7.37095 121.365 7.93509C120.856 8.49923 120.47 9.16429 120.231 9.88748C119.993 10.6107 119.909 11.376 119.982 12.1341C120.056 12.8923 120.287 13.6265 120.66 14.2895C121.033 14.9526 121.54 15.5298 122.148 15.9839C122.756 16.4381 123.452 16.7592 124.191 16.9266C124.93 17.094 125.696 17.104 126.439 16.9558L126.439 16.9574L130.809 16.1718C130.809 16.1718 130.814 11.6744 130.814 11.6025C130.813 10.1556 130.24 8.76842 129.223 7.74529C128.205 6.72217 126.826 6.14666 125.387 6.14502ZM128.124 14.0471L125.917 14.4432C125.364 14.5531 124.791 14.4877 124.275 14.2573C123.76 14.0268 123.328 13.642 123.039 13.1553C122.749 12.6685 122.616 12.1038 122.658 11.5383C122.7 10.9727 122.915 10.434 123.273 9.9959C123.631 9.55776 124.115 9.24158 124.659 9.09061C125.202 8.93964 125.779 8.96126 126.31 9.15251C126.841 9.34376 127.3 9.6953 127.625 10.159C127.949 10.6227 128.123 11.176 128.123 11.7431L128.124 14.0471Z" fill="white"/>
    <path d="M119.138 7.00659C116.234 7.22336 113.937 9.66668 113.937 12.6411V19.0072L116.806 18.5005V12.6411C116.806 11.2844 117.837 10.1189 119.138 9.90864V7.00659Z" fill="white"/>
    <path d="M107.595 9.26262C107.329 9.26275 107.062 9.28204 106.799 9.32035L106.8 9.31944L106.779 9.3232C106.66 9.34083 106.543 9.36221 106.426 9.38736L104.856 9.67225V5.57007L102 6.07839V14.8888C102 16.0015 102.328 17.0892 102.943 18.0144C103.558 18.9396 104.432 19.6607 105.454 20.0865C106.476 20.5123 107.601 20.6237 108.687 20.4066C109.772 20.1895 110.769 19.6537 111.551 18.8669C112.334 18.08 112.867 17.0776 113.082 15.9862C113.298 14.8949 113.188 13.7637 112.764 12.7357C112.341 11.7076 111.623 10.829 110.703 10.2108C109.783 9.59258 108.702 9.26262 107.595 9.26262ZM107.589 17.6484C106.862 17.6461 106.165 17.3537 105.651 16.8353C105.138 16.3169 104.85 15.6149 104.851 14.8833C104.851 14.8469 104.852 14.8109 104.854 14.7749L104.858 12.573L107.069 12.1802C107.444 12.1063 107.831 12.1131 108.205 12.1986C108.578 12.2841 108.93 12.4472 109.236 12.6775C109.543 12.9078 109.799 13.2001 109.987 13.5356C110.175 13.8712 110.29 14.2425 110.327 14.6258C110.364 15.0091 110.32 15.3959 110.199 15.7612C110.078 16.1265 109.882 16.4623 109.624 16.747C109.366 17.0317 109.052 17.259 108.702 17.4142C108.351 17.5694 107.972 17.6492 107.589 17.6484Z" fill="white"/>
    <path d="M1.12 20.2V9.064H3.104V10.024H3.392C3.57333 9.71467 3.856 9.44267 4.24 9.208C4.624 8.96267 5.17333 8.84 5.888 8.84C6.528 8.84 7.12 9 7.664 9.32C8.208 9.62933 8.64533 10.088 8.976 10.696C9.30667 11.304 9.472 12.04 9.472 12.904V13.16C9.472 14.024 9.30667 14.76 8.976 15.368C8.64533 15.976 8.208 16.44 7.664 16.76C7.12 17.0693 6.528 17.224 5.888 17.224C5.408 17.224 5.00267 17.1653 4.672 17.048C4.352 16.9413 4.09067 16.8027 3.888 16.632C3.696 16.4507 3.54133 16.2693 3.424 16.088H3.136V20.2H1.12ZM5.28 15.464C5.90933 15.464 6.42667 15.2667 6.832 14.872C7.248 14.4667 7.456 13.88 7.456 13.112V12.952C7.456 12.184 7.248 11.6027 6.832 11.208C6.416 10.8027 5.89867 10.6 5.28 10.6C4.66133 10.6 4.144 10.8027 3.728 11.208C3.312 11.6027 3.104 12.184 3.104 12.952V13.112C3.104 13.88 3.312 14.4667 3.728 14.872C4.144 15.2667 4.66133 15.464 5.28 15.464ZM15.0991 17.224C14.3098 17.224 13.6005 17.064 12.9711 16.744C12.3418 16.424 11.8458 15.96 11.4831 15.352C11.1205 14.744 10.9391 14.0133 10.9391 13.16V12.904C10.9391 12.0507 11.1205 11.32 11.4831 10.712C11.8458 10.104 12.3418 9.64 12.9711 9.32C13.6005 9 14.3098 8.84 15.0991 8.84C15.8885 8.84 16.5978 9 17.2271 9.32C17.8565 9.64 18.3525 10.104 18.7151 10.712C19.0778 11.32 19.2591 12.0507 19.2591 12.904V13.16C19.2591 14.0133 19.0778 14.744 18.7151 15.352C18.3525 15.96 17.8565 16.424 17.2271 16.744C16.5978 17.064 15.8885 17.224 15.0991 17.224ZM15.0991 15.432C15.7178 15.432 16.2298 15.2347 16.6351 14.84C17.0405 14.4347 17.2431 13.8587 17.2431 13.112V12.952C17.2431 12.2053 17.0405 11.6347 16.6351 11.24C16.2405 10.8347 15.7285 10.632 15.0991 10.632C14.4805 10.632 13.9685 10.8347 13.5631 11.24C13.1578 11.6347 12.9551 12.2053 12.9551 12.952V13.112C12.9551 13.8587 13.1578 14.4347 13.5631 14.84C13.9685 15.2347 14.4805 15.432 15.0991 15.432ZM21.7288 17L20.6088 9.064H22.6088L23.3128 15.64H23.6008L24.6248 9.064H27.8568L28.8808 15.64H29.1688L29.8728 9.064H31.8728L30.7528 17H27.4088L26.3848 10.424H26.0968L25.0728 17H21.7288ZM37.2204 17.224C36.431 17.224 35.7324 17.0587 35.1244 16.728C34.527 16.3867 34.0577 15.912 33.7164 15.304C33.3857 14.6853 33.2204 13.96 33.2204 13.128V12.936C33.2204 12.104 33.3857 11.384 33.7164 10.776C34.047 10.1573 34.511 9.68267 35.1084 9.352C35.7057 9.01067 36.399 8.84 37.1884 8.84C37.967 8.84 38.6444 9.016 39.2204 9.368C39.7964 9.70933 40.2444 10.1893 40.5644 10.808C40.8844 11.416 41.0444 12.1253 41.0444 12.936V13.624H35.2684C35.2897 14.168 35.4924 14.6107 35.8764 14.952C36.2604 15.2933 36.7297 15.464 37.2844 15.464C37.8497 15.464 38.2657 15.3413 38.5324 15.096C38.799 14.8507 39.0017 14.5787 39.1404 14.28L40.7884 15.144C40.639 15.4213 40.4204 15.7253 40.1324 16.056C39.855 16.376 39.4817 16.6533 39.0124 16.888C38.543 17.112 37.9457 17.224 37.2204 17.224ZM35.2844 12.12H38.9964C38.9537 11.6613 38.767 11.2933 38.4364 11.016C38.1164 10.7387 37.695 10.6 37.1724 10.6C36.6284 10.6 36.1964 10.7387 35.8764 11.016C35.5564 11.2933 35.359 11.6613 35.2844 12.12ZM42.8388 17V9.064H44.8228V9.96H45.1108C45.2281 9.64 45.4201 9.40533 45.6868 9.256C45.9641 9.10667 46.2841 9.032 46.6468 9.032H47.6068V10.824H46.6148C46.1028 10.824 45.6814 10.9627 45.3508 11.24C45.0201 11.5067 44.8548 11.9227 44.8548 12.488V17H42.8388ZM52.5173 17.224C51.7279 17.224 51.0293 17.0587 50.4213 16.728C49.8239 16.3867 49.3546 15.912 49.0133 15.304C48.6826 14.6853 48.5173 13.96 48.5173 13.128V12.936C48.5173 12.104 48.6826 11.384 49.0133 10.776C49.3439 10.1573 49.8079 9.68267 50.4053 9.352C51.0026 9.01067 51.6959 8.84 52.4852 8.84C53.2639 8.84 53.9413 9.016 54.5173 9.368C55.0933 9.70933 55.5413 10.1893 55.8612 10.808C56.1813 11.416 56.3413 12.1253 56.3413 12.936V13.624H50.5653C50.5866 14.168 50.7893 14.6107 51.1733 14.952C51.5573 15.2933 52.0266 15.464 52.5813 15.464C53.1466 15.464 53.5626 15.3413 53.8293 15.096C54.0959 14.8507 54.2986 14.5787 54.4373 14.28L56.0853 15.144C55.9359 15.4213 55.7173 15.7253 55.4293 16.056C55.1519 16.376 54.7786 16.6533 54.3093 16.888C53.8399 17.112 53.2426 17.224 52.5173 17.224ZM50.5813 12.12H54.2933C54.2506 11.6613 54.0639 11.2933 53.7333 11.016C53.4133 10.7387 52.9919 10.6 52.4693 10.6C51.9253 10.6 51.4933 10.7387 51.1733 11.016C50.8533 11.2933 50.6559 11.6613 50.5813 12.12ZM61.3356 17.224C60.7063 17.224 60.1143 17.0693 59.5596 16.76C59.0156 16.44 58.5783 15.976 58.2476 15.368C57.917 14.76 57.7516 14.024 57.7516 13.16V12.904C57.7516 12.04 57.917 11.304 58.2476 10.696C58.5783 10.088 59.0156 9.62933 59.5596 9.32C60.1036 9 60.6956 8.84 61.3356 8.84C61.8156 8.84 62.2156 8.89867 62.5356 9.016C62.8663 9.12267 63.133 9.26133 63.3356 9.432C63.5383 9.60267 63.693 9.784 63.7996 9.976H64.0876V5.8H66.1036V17H64.1196V16.04H63.8316C63.6503 16.3387 63.3676 16.6107 62.9836 16.856C62.6103 17.1013 62.061 17.224 61.3356 17.224ZM61.9436 15.464C62.5623 15.464 63.0796 15.2667 63.4956 14.872C63.9116 14.4667 64.1196 13.88 64.1196 13.112V12.952C64.1196 12.184 63.9116 11.6027 63.4956 11.208C63.0903 10.8027 62.573 10.6 61.9436 10.6C61.325 10.6 60.8076 10.8027 60.3916 11.208C59.9756 11.6027 59.7676 12.184 59.7676 12.952V13.112C59.7676 13.88 59.9756 14.4667 60.3916 14.872C60.8076 15.2667 61.325 15.464 61.9436 15.464ZM77.1693 17.224C76.4546 17.224 75.9053 17.1013 75.5213 16.856C75.1373 16.6107 74.8546 16.3387 74.6733 16.04H74.3853V17H72.4013V5.8H74.4173V9.976H74.7053C74.8226 9.784 74.9773 9.60267 75.1693 9.432C75.3719 9.26133 75.6333 9.12267 75.9533 9.016C76.2839 8.89867 76.6893 8.84 77.1693 8.84C77.8093 8.84 78.4013 9 78.9453 9.32C79.4893 9.62933 79.9266 10.088 80.2573 10.696C80.5879 11.304 80.7533 12.04 80.7533 12.904V13.16C80.7533 14.024 80.5879 14.76 80.2573 15.368C79.9266 15.976 79.4893 16.44 78.9453 16.76C78.4013 17.0693 77.8093 17.224 77.1693 17.224ZM76.5613 15.464C77.1799 15.464 77.6973 15.2667 78.1133 14.872C78.5293 14.4667 78.7373 13.88 78.7373 13.112V12.952C78.7373 12.184 78.5293 11.6027 78.1133 11.208C77.7079 10.8027 77.1906 10.6 76.5613 10.6C75.9426 10.6 75.4253 10.8027 75.0093 11.208C74.5933 11.6027 74.3853 12.184 74.3853 12.952V13.112C74.3853 13.88 74.5933 14.4667 75.0093 14.872C75.4253 15.2667 75.9426 15.464 76.5613 15.464ZM83.4684 20.2V18.44H87.7884C88.087 18.44 88.2364 18.28 88.2364 17.96V15.96H87.9484C87.863 16.1413 87.7297 16.3227 87.5484 16.504C87.367 16.6853 87.1217 16.8347 86.8124 16.952C86.503 17.0693 86.1084 17.128 85.6284 17.128C85.0097 17.128 84.4657 16.9893 83.9964 16.712C83.5377 16.424 83.1804 16.0293 82.9244 15.528C82.6684 15.0267 82.5404 14.4507 82.5404 13.8V9.064H84.5564V13.64C84.5564 14.2373 84.7004 14.6853 84.9884 14.984C85.287 15.2827 85.7084 15.432 86.2524 15.432C86.871 15.432 87.351 15.2293 87.6924 14.824C88.0337 14.408 88.2044 13.832 88.2044 13.096V9.064H90.2204V18.408C90.2204 18.952 90.0604 19.384 89.7404 19.704C89.4204 20.0347 88.9937 20.2 88.4604 20.2H83.4684Z" fill="white"/>
    </svg>
    