<svg width="189" height="189" viewBox="0 0 189 189" fill="none" xmlns="http://www.w3.org/2000/svg">
    <path d="M76.7813 159.533C77.8934 159.817 78.7007 160.371 79.203 161.193C79.694 162.022 79.7775 163.07 79.4533 164.336L78.9045 166.478C78.5804 167.744 78.0049 168.618 77.1782 169.1C76.34 169.589 75.3649 169.691 74.2528 169.406C73.1498 169.123 72.3888 168.596 71.9699 167.824C71.5396 167.059 71.4611 166.143 71.7344 165.076L71.7517 165.008L72.6197 165.23L72.5954 165.325C72.3963 166.103 72.4421 166.789 72.733 167.384C73.0125 167.985 73.5863 168.397 74.4543 168.619C75.3313 168.844 76.0868 168.753 76.7207 168.347C77.3455 167.939 77.7818 167.251 78.0296 166.283L78.5923 164.086C78.84 163.119 78.7881 162.306 78.4364 161.647C78.0758 160.986 77.4569 160.544 76.5799 160.319C75.7119 160.097 75.012 160.178 74.48 160.562C73.9368 160.953 73.5656 161.537 73.3665 162.314L73.3144 162.518L72.4464 162.295L72.4915 162.119C72.7647 161.052 73.2751 160.282 74.0226 159.809C74.7587 159.342 75.6783 159.25 76.7813 159.533Z" fill="white"/>
    <path d="M67.3967 156.189C68.0318 156.46 68.5329 156.832 68.8999 157.303C69.2546 157.779 69.4624 158.315 69.5231 158.909C69.5716 159.508 69.4584 160.13 69.1834 160.773L69.1174 160.928C68.8425 161.572 68.4736 162.079 68.0108 162.45C67.5357 162.825 67.0053 163.045 66.4196 163.11C65.8216 163.179 65.2051 163.078 64.5699 162.807C63.9348 162.535 63.4398 162.161 63.0851 161.685C62.7181 161.214 62.5103 160.678 62.4618 160.079C62.4011 159.485 62.5082 158.866 62.7831 158.222L62.8491 158.068C63.1241 157.424 63.4991 156.914 63.9742 156.539C64.437 156.168 64.9674 155.948 65.5654 155.879C66.1511 155.814 66.7615 155.918 67.3967 156.189ZM67.0997 156.884C66.3615 156.569 65.6789 156.551 65.0518 156.832C64.421 157.12 63.9406 157.651 63.6106 158.423L63.5666 158.526C63.2366 159.299 63.1872 160.009 63.4184 160.655C63.6459 161.311 64.1287 161.796 64.8669 162.111C65.5964 162.423 66.2809 162.436 66.9203 162.151C67.5474 161.871 68.026 161.345 68.356 160.572L68.4 160.469C68.7299 159.697 68.7812 158.983 68.5537 158.327C68.3139 157.677 67.8293 157.196 67.0997 156.884Z" fill="white"/>
    <path d="M60.8575 153.131L57.2624 158.908L56.573 158.479L57.2387 157.409L57.0961 157.32C56.7611 157.54 56.3572 157.668 55.8844 157.704C55.4066 157.747 54.8587 157.577 54.2406 157.192C53.8207 156.93 53.4906 156.604 53.2504 156.213C53.0103 155.822 52.8981 155.383 52.914 154.899C52.9171 154.417 53.0838 153.91 53.4142 153.38L55.6038 149.861L56.317 150.305L54.157 153.776C53.7624 154.41 53.6373 154.964 53.7817 155.439C53.9261 155.913 54.2637 156.316 54.7946 156.646C55.3889 157.016 56.0075 157.126 56.6502 156.977C57.2881 156.835 57.8536 156.368 58.3467 155.575L60.1443 152.687L60.8575 153.131Z" fill="white"/>
    <path d="M52.3257 147.303L45.9401 154.737L45.3029 154.19L48.0305 151.015L47.903 150.905C47.6721 151.002 47.4185 151.061 47.1421 151.082C46.8525 151.104 46.5479 151.058 46.2281 150.943C45.8951 150.829 45.5446 150.614 45.1764 150.298C44.8012 149.976 44.5247 149.603 44.347 149.179C44.1693 148.756 44.1222 148.31 44.2057 147.84C44.2821 147.364 44.5241 146.889 44.9315 146.415L47.6317 143.271L48.2689 143.819L45.6052 146.92C45.1187 147.486 44.9136 148.011 44.9901 148.495C45.0604 148.986 45.3327 149.436 45.8071 149.843C46.3381 150.299 46.9296 150.506 47.5816 150.463C48.2336 150.42 48.8637 150.045 49.4718 149.337L51.6885 146.756L52.3257 147.303Z" fill="white"/>
    <path d="M42.8907 137.734C43.3459 138.265 43.6337 138.824 43.7538 139.409C43.8608 139.993 43.8064 140.568 43.5905 141.134C43.3746 141.7 43.0043 142.207 42.4797 142.656L42.352 142.766C41.8203 143.221 41.2619 143.509 40.6767 143.629C40.0844 143.755 39.5145 143.721 38.9669 143.526C38.4062 143.331 37.9133 142.985 37.4884 142.488C37.0756 142.006 36.8142 141.493 36.7041 140.948C36.5809 140.403 36.6196 139.859 36.8203 139.319C37.014 138.785 37.3731 138.293 37.8977 137.843L38.238 137.552L42.0078 141.955C42.6347 141.381 42.9676 140.758 43.0064 140.086C43.032 139.413 42.802 138.793 42.3164 138.225C41.9036 137.743 41.475 137.465 41.0306 137.391C40.5802 137.31 40.1348 137.335 39.6943 137.466L39.4578 136.674C39.7828 136.58 40.1407 136.531 40.5315 136.528C40.9091 136.524 41.2998 136.608 41.7037 136.778C42.1004 136.954 42.4961 137.273 42.8907 137.734ZM41.4457 142.418L38.2405 138.674C37.7047 139.182 37.4306 139.73 37.4181 140.318C37.3986 140.913 37.6134 141.472 38.0626 141.997C38.5058 142.514 39.0255 142.813 39.6217 142.892C40.2108 142.977 40.8188 142.819 41.4457 142.418Z" fill="white"/>
    <path d="M36.9297 129.371C37.279 129.934 37.4724 130.512 37.5099 131.104C37.5346 131.692 37.3995 132.254 37.1048 132.788C36.8101 133.322 36.3574 133.779 35.7467 134.158L35.6277 134.231C35.009 134.615 34.3989 134.818 33.7973 134.839C33.1877 134.866 32.6287 134.735 32.1202 134.446C31.5989 134.154 31.1636 133.727 30.8143 133.164C30.47 132.609 30.2868 132.074 30.2649 131.561C30.2301 131.044 30.3168 130.573 30.525 130.147C30.7204 129.719 30.9873 129.361 31.3257 129.074L31.9038 129.688C31.619 129.919 31.399 130.193 31.2435 130.509C31.0801 130.83 31.0117 131.18 31.038 131.559C31.0565 131.943 31.1961 132.345 31.4568 132.765C31.7175 133.186 32.0503 133.501 32.4552 133.711C32.8522 133.926 33.2906 134.022 33.7705 133.999C34.2376 133.973 34.713 133.81 35.1969 133.51L35.292 133.451C35.7759 133.151 36.1372 132.795 36.3761 132.383C36.6021 131.969 36.711 131.533 36.7027 131.077C36.6864 130.626 36.548 130.19 36.2873 129.77C35.8937 129.135 35.4311 128.752 34.8993 128.621C34.3595 128.494 33.8271 128.539 33.302 128.755L33.0094 127.964C33.4265 127.804 33.8769 127.734 34.3606 127.752C34.8315 127.768 35.2945 127.903 35.7497 128.159C36.1921 128.412 36.5854 128.816 36.9297 129.371ZM39.137 127.936C39.2846 128.174 39.3826 128.421 39.4312 128.677C39.4828 128.919 39.4983 129.157 39.4777 129.389L38.81 129.375C38.8264 129.189 38.8221 129.005 38.797 128.823C38.767 128.633 38.6979 128.45 38.5897 128.276C38.4864 128.109 38.3646 127.993 38.2244 127.926C38.0871 127.846 37.9431 127.853 37.7924 127.947C37.6576 128.03 37.5889 128.15 37.5864 128.305C37.579 128.452 37.6318 128.617 37.745 128.8L38.0106 129.228L36.6564 129.887L36.3096 129.328L37.1941 128.894C37.0022 128.585 36.9251 128.292 36.9626 128.016C37.0081 127.736 37.1776 127.504 37.4711 127.322C37.6773 127.194 37.8823 127.144 38.086 127.172C38.2927 127.186 38.4844 127.265 38.661 127.408C38.8406 127.538 38.9993 127.714 39.137 127.936Z" fill="white"/>
    <path d="M32.6981 121.115C32.8844 121.553 32.9813 121.983 32.9887 122.406C32.9838 122.824 32.8792 123.198 32.6749 123.528C32.4705 123.859 32.1622 124.112 31.75 124.287C31.3291 124.466 30.9374 124.511 30.5749 124.422C30.2124 124.332 29.8876 124.141 29.6004 123.847C29.3132 123.553 29.0783 123.192 28.8956 122.762L27.9203 120.469L27.4179 120.683C26.9111 120.898 26.5782 121.212 26.4189 121.625C26.2597 122.038 26.2988 122.523 26.5362 123.081C26.77 123.631 27.0937 124.011 27.5074 124.22C27.9088 124.425 28.3608 124.486 28.8635 124.404L28.9623 125.244C28.5492 125.298 28.1491 125.276 27.7621 125.177C27.3665 125.081 27.0043 124.885 26.6754 124.589C26.338 124.296 26.0597 123.893 25.8405 123.377C25.5045 122.587 25.4512 121.89 25.6809 121.285C25.9068 120.671 26.3891 120.208 27.1278 119.893L30.1682 118.6C30.4259 118.491 30.5036 118.316 30.4013 118.075L30.1438 117.47L30.8137 117.185L31.1644 118.009C31.2776 118.276 31.2898 118.519 31.201 118.739C31.1035 118.963 30.9174 119.134 30.6425 119.251L30.5524 119.289L30.6071 119.418C30.8436 119.449 31.0903 119.517 31.3474 119.62C31.6008 119.715 31.8437 119.881 32.0759 120.117C32.308 120.353 32.5155 120.685 32.6981 121.115ZM31.9805 121.359C31.6992 120.698 31.2752 120.249 30.7084 120.014C30.1294 119.773 29.4749 119.808 28.7449 120.119L28.5903 120.184L29.5601 122.465C29.75 122.911 30.0077 123.243 30.3331 123.459C30.6462 123.671 31.0047 123.691 31.4083 123.519C31.812 123.348 32.0616 123.064 32.157 122.669C32.2403 122.268 32.1814 121.832 31.9805 121.359Z" fill="white"/>
    <path d="M27.9395 104.251C28.0673 105.062 27.9833 105.789 27.6876 106.431C27.3904 107.063 26.8048 107.515 25.9309 107.785L25.6502 106.993C26.1272 106.842 26.4912 106.633 26.7422 106.367C26.9825 106.093 27.1371 105.785 27.2061 105.444C27.2737 105.093 27.2784 104.733 27.2203 104.364C27.1332 103.811 26.9529 103.386 26.6793 103.089C26.3951 102.784 26.0547 102.663 25.6583 102.725C25.2526 102.789 24.9968 102.995 24.8909 103.342C24.7836 103.681 24.7252 104.12 24.7158 104.66L24.7054 105.313C24.6984 105.749 24.6481 106.149 24.5543 106.513C24.4513 106.879 24.2867 107.184 24.0605 107.427C23.8328 107.662 23.5254 107.809 23.1382 107.87C22.5573 107.962 22.0654 107.808 21.6623 107.408C21.2578 107 20.996 106.417 20.8769 105.661C20.7563 104.896 20.8349 104.255 21.1127 103.739C21.3797 103.215 21.8311 102.842 22.4668 102.619L22.7548 103.367C22.2345 103.544 21.8914 103.824 21.7253 104.21C21.5578 104.586 21.5147 105.032 21.596 105.548C21.6759 106.055 21.8366 106.445 22.0781 106.719C22.3197 106.993 22.6295 107.1 23.0075 107.041C23.3762 106.982 23.6264 106.801 23.758 106.497C23.8804 106.194 23.9453 105.797 23.9528 105.304L23.9632 104.651C23.9644 104.178 24.0096 103.746 24.0991 103.354C24.1793 102.963 24.3317 102.642 24.5565 102.389C24.7798 102.127 25.1035 101.963 25.5276 101.896C26.1637 101.795 26.6947 101.958 27.1206 102.382C27.5373 102.807 27.8102 103.431 27.9395 104.251Z" fill="white"/>
    <path d="M27.2389 94.3314C27.245 95.022 27.1056 95.6299 26.8208 96.1551C26.5266 96.671 26.1195 97.0759 25.5994 97.3698C25.0698 97.6544 24.4551 97.7998 23.7551 97.8059L23.5871 97.8073C22.8871 97.8134 22.2746 97.6788 21.7495 97.4033C21.215 97.1186 20.8009 96.7209 20.5071 96.2101C20.2038 95.6901 20.0492 95.0847 20.0432 94.3941C20.0372 93.7034 20.1813 93.1002 20.4755 92.5843C20.7602 92.0591 21.1674 91.6542 21.6969 91.3696C22.217 91.0757 22.8271 90.9257 23.5271 90.9196L23.6951 90.9181C24.395 90.912 25.0123 91.0513 25.5468 91.336C26.0719 91.6115 26.486 92.0092 26.7892 92.5292C27.083 93.04 27.2329 93.6407 27.2389 94.3314ZM26.483 94.338C26.476 93.5353 26.2185 92.9029 25.7104 92.4406C25.193 91.9785 24.5144 91.751 23.6744 91.7583L23.5624 91.7593C22.7224 91.7666 22.0525 92.0058 21.5526 92.4769C21.0433 92.948 20.7922 93.5849 20.7992 94.3875C20.8061 95.1808 21.0683 95.8132 21.5857 96.2847C22.0938 96.747 22.7678 96.9744 23.6078 96.9671L23.7198 96.9662C24.5597 96.9588 25.2343 96.7196 25.7436 96.2485C26.2434 95.7681 26.4899 95.1313 26.483 94.338Z" fill="white"/>
    <path d="M28.1397 83.5655C28.0283 84.3038 27.7982 84.859 27.4495 85.2312C27.0929 85.5927 26.7154 85.8425 26.317 85.9806L26.2919 86.1467L27.524 86.3326L27.4029 87.1355L17.7125 85.6735L17.8378 84.8429L21.977 85.4674L22.0021 85.3013C21.7894 85.1465 21.5976 84.9476 21.4266 84.7047C21.2478 84.4512 21.1195 84.144 21.0418 83.783C20.9563 83.4114 20.9504 82.9811 21.0242 82.492C21.1161 81.8828 21.342 81.3553 21.7019 80.9093C22.0526 80.462 22.5125 80.1349 23.0817 79.9282C23.6417 79.7201 24.277 79.6696 24.9876 79.7769L25.1538 79.8019C25.8644 79.9091 26.4604 80.1501 26.9419 80.5248C27.4156 80.8888 27.7586 81.337 27.9709 81.8693C28.1739 82.4002 28.2302 82.9656 28.1397 83.5655ZM27.3629 83.6465C27.4785 82.8805 27.3272 82.2253 26.9091 81.6808C26.4924 81.1271 25.8549 80.7855 24.9966 80.656L24.8858 80.6393C24.0275 80.5098 23.3176 80.6481 22.7561 81.0542C22.196 81.4511 21.8581 82.0325 21.7425 82.7985C21.6284 83.5553 21.7796 84.2105 22.1964 84.7642C22.6131 85.3179 23.2506 85.6595 24.1089 85.789L24.2196 85.8057C25.0779 85.9352 25.7878 85.7969 26.3494 85.3908C26.9109 84.9847 27.2487 84.4033 27.3629 83.6465Z" fill="white"/>
    <path d="M29.5817 76.1939L23.0653 74.2365L23.2989 73.4588L24.1168 73.7045L24.1651 73.5436C23.9077 73.3298 23.7483 73.0821 23.6867 72.8005C23.6278 72.51 23.6641 72.1457 23.7957 71.7077L24.0253 70.9434L24.7761 71.169L24.5183 72.0271C24.3707 72.5187 24.3911 72.9536 24.5796 73.3319C24.7681 73.7101 25.1573 73.9878 25.7472 74.165L29.8233 75.3894L29.5817 76.1939Z" fill="white"/>
    <path d="M33.6813 65.8074C33.3905 66.4442 33.0049 66.9402 32.5246 67.2954C32.0397 67.6383 31.4951 67.8308 30.891 67.873C30.2869 67.9152 29.6707 67.7928 29.0425 67.5059L28.8897 67.4361C28.2529 67.1453 27.7569 66.7597 27.4017 66.2794C27.038 65.7952 26.8292 65.2638 26.7754 64.6851C26.717 64.0941 26.8235 63.5015 27.0949 62.9072C27.3585 62.3299 27.7143 61.8767 28.1621 61.5477C28.6053 61.2063 29.1143 61.0129 29.6891 60.9676C30.2554 60.9184 30.8526 61.0373 31.4809 61.3242L31.8884 61.5103L29.4806 66.7825C30.2648 67.1099 30.9699 67.1497 31.5961 66.9021C32.2176 66.6422 32.6834 66.1726 32.9936 65.4934C33.2572 64.9161 33.3292 64.4103 33.2095 63.9759C33.0936 63.5331 32.8835 63.1396 32.579 62.7953L33.1987 62.2472C33.4207 62.5025 33.6152 62.8068 33.7821 63.1601C33.9445 63.501 34.0334 63.8905 34.0489 64.3285C34.0558 64.7626 33.9333 65.2556 33.6813 65.8074ZM28.8242 66.4673L30.8714 61.9847C30.1852 61.7123 29.5727 61.6942 29.0339 61.9304C28.4866 62.1627 28.0695 62.593 27.7825 63.2212C27.4995 63.841 27.4475 64.438 27.6264 65.0122C27.7969 65.5826 28.1961 66.0676 28.8242 66.4673Z" fill="white"/>
    <path d="M42.7292 51.5791C42.295 52.1163 41.8011 52.4972 41.2476 52.7218C40.6926 52.9333 40.1209 52.9872 39.5326 52.8837C38.9428 52.7671 38.3757 52.4887 37.8313 52.0487L37.7007 51.9431C37.1563 51.5031 36.7688 51.0099 36.5383 50.4636C36.3065 49.9041 36.2394 49.3339 36.337 48.7528C36.4333 48.1585 36.6985 47.5928 37.1327 47.0557C37.5668 46.5185 38.0614 46.1442 38.6163 45.9327C39.1699 45.7081 39.7416 45.6541 40.3313 45.7708C40.9197 45.8743 41.4861 46.1461 42.0305 46.5861L42.1612 46.6917C42.7056 47.1317 43.0937 47.6315 43.3256 48.1909C43.5561 48.7372 43.6232 49.3075 43.5269 49.9017C43.4292 50.4829 43.1633 51.042 42.7292 51.5791ZM42.1412 51.1039C42.6458 50.4796 42.8487 49.8276 42.7501 49.1479C42.6442 48.4623 42.2646 47.8554 41.6114 47.3274L41.5243 47.257C40.871 46.729 40.2017 46.488 39.5163 46.5341C38.8238 46.5744 38.2252 46.9067 37.7206 47.5309C37.2219 48.1479 37.0226 48.8028 37.1226 49.4957C37.2212 50.1755 37.5972 50.7794 38.2505 51.3074L38.3376 51.3778C38.9909 51.9058 39.6638 52.1497 40.3564 52.1095C41.0476 52.0561 41.6425 51.7209 42.1412 51.1039Z" fill="white"/>
    <path d="M52.416 41.7417L46.5659 33.8794L49.475 31.7148C49.9392 31.3694 50.4217 31.15 50.9223 31.0568C51.4248 30.9504 51.9072 30.9812 52.3695 31.1491C52.8318 31.317 53.2385 31.6368 53.5895 32.1085L53.6898 32.2433C54.0408 32.7151 54.2293 33.203 54.2554 33.7071C54.2834 34.1981 54.1743 34.669 53.928 35.1198C53.6893 35.5651 53.3415 35.9576 52.8847 36.2975L50.6945 37.9271L53.1348 41.2069L52.416 41.7417ZM50.2098 37.2757L52.3214 35.7045C52.883 35.2867 53.2217 34.8194 53.3375 34.3028C53.4609 33.7806 53.3359 33.2686 52.9626 32.7669L52.879 32.6546C52.5001 32.1454 52.0494 31.8759 51.5269 31.8459C51.0062 31.8028 50.4576 31.9958 49.8811 32.4248L47.7695 33.996L50.2098 37.2757Z" fill="white"/>
    <path d="M60.9312 35.9269L56.3951 27.2399L57.1893 26.8252L59.263 30.7964L63.681 28.4894L61.6073 24.5182L62.4015 24.1035L66.9377 32.7905L66.1434 33.2052L64.0568 29.2092L59.6389 31.5161L61.7255 35.5121L60.9312 35.9269Z" fill="white"/>
    <path d="M70.9766 31.2232L67.8681 21.9293L71.3069 20.7792C71.8556 20.5956 72.3824 20.5375 72.8872 20.6049C73.3978 20.6604 73.8466 20.84 74.2336 21.1436C74.6205 21.4472 74.9073 21.8779 75.0938 22.4355L75.1471 22.5948C75.3336 23.1524 75.3607 23.6748 75.2284 24.162C75.1019 24.6373 74.8515 25.0507 74.477 25.4023C74.1114 25.751 73.6586 26.0156 73.1187 26.1962L70.5297 27.0621L71.8264 30.939L70.9766 31.2232ZM70.2721 26.2921L72.7682 25.4572C73.432 25.2352 73.8995 24.8968 74.1706 24.442C74.4505 23.9842 74.4913 23.4588 74.2929 22.8657L74.2485 22.733C74.0472 22.1311 73.7029 21.7345 73.2158 21.5431C72.7345 21.34 72.153 21.3524 71.4715 21.5803L68.9754 22.4152L70.2721 26.2921Z" fill="white"/>
    <path d="M80.8048 28.3088L79.3604 18.6158L81.0913 18.3579L85.3928 27.0873L85.559 27.0625L87.1286 17.4583L88.8595 17.2004L90.3039 26.8933L89.4454 27.0213L88.0794 17.8545L87.9132 17.8792L86.3436 27.4835L84.765 27.7187L80.4635 18.9893L80.2973 19.0141L81.6633 28.1809L80.8048 28.3088Z" fill="white"/>
    <path d="M97.4926 27.2522C96.7463 27.2281 96.0981 27.0576 95.5481 26.741C94.9984 26.415 94.5791 25.9532 94.2903 25.3555C94.0018 24.7485 93.8716 24.0113 93.8997 23.1437L93.9714 20.9329C94.0137 19.6269 94.3862 18.6491 95.0889 17.9995C95.8013 17.3409 96.7312 17.0302 97.8786 17.0674C99.0167 17.1043 99.8646 17.4492 100.422 18.1023C100.99 18.7557 101.256 19.6094 101.222 20.6636L101.22 20.7335L100.324 20.7045L100.327 20.6066C100.344 20.0935 100.27 19.6382 100.105 19.2407C99.9411 18.8338 99.6714 18.5122 99.2962 18.2759C98.9306 18.0306 98.4493 17.8983 97.8523 17.879C96.9474 17.8497 96.2296 18.1019 95.6987 18.6356C95.1771 19.1697 94.9001 19.9358 94.8678 20.9339L94.7943 23.2007C94.762 24.1989 94.9888 24.9813 95.4747 25.548C95.9699 26.115 96.67 26.4132 97.5748 26.4425C98.461 26.4712 99.1223 26.2358 99.5587 25.7364C99.9951 25.2369 100.227 24.5534 100.256 23.6858L100.265 23.406L97.0323 23.3013L97.0577 22.5177L101.158 22.6505L101.011 27.1701L100.199 27.1438L100.235 26.0384L100.067 26.033C99.9482 26.2532 99.7827 26.4627 99.5708 26.6612C99.3592 26.8505 99.0835 27.0003 98.7438 27.1107C98.4134 27.2214 97.9963 27.2686 97.4926 27.2522Z" fill="white"/>
    <path d="M114.923 30.3194C113.823 29.992 113.037 29.4078 112.567 28.5667C112.108 27.7194 112.065 26.6695 112.438 25.4171L113.069 23.2969C113.441 22.0445 114.05 21.1934 114.895 20.7437C115.751 20.2876 116.729 20.2233 117.83 20.5507C118.921 20.8754 119.661 21.4316 120.05 22.2192C120.451 23.0005 120.494 23.919 120.18 24.9745L120.16 25.0416L119.301 24.7861L119.329 24.6922C119.558 23.9228 119.538 23.2354 119.271 22.6299C119.014 22.0181 118.457 21.5845 117.598 21.3289C116.73 21.0707 115.972 21.1323 115.323 21.5138C114.683 21.8978 114.22 22.5684 113.936 23.5256L113.289 25.6994C113.004 26.6566 113.025 27.471 113.351 28.1425C113.686 28.8167 114.287 29.2829 115.155 29.5411C116.013 29.7966 116.716 29.7428 117.262 29.3795C117.82 29.0099 118.214 28.4404 118.442 27.6711L118.502 27.4698L119.361 27.7254L119.309 27.8998C118.995 28.9554 118.456 29.7053 117.69 30.1496C116.937 30.5875 116.014 30.6441 114.923 30.3194Z" fill="white"/>
    <path d="M124.172 34.0222C123.547 33.7267 123.061 33.3363 122.712 32.8511C122.376 32.3615 122.189 31.8186 122.151 31.2224C122.126 30.6218 122.263 30.0051 122.563 29.3724L122.635 29.2206C122.934 28.5879 123.322 28.0953 123.799 27.7427C124.288 27.3857 124.827 27.1863 125.414 27.1445C126.015 27.0982 126.627 27.2228 127.251 27.5184C127.875 27.8139 128.355 28.2065 128.692 28.6961C129.04 29.1813 129.227 29.7242 129.253 30.3248C129.29 30.921 129.16 31.5355 128.86 32.1681L128.788 32.32C128.489 32.9527 128.094 33.4475 127.605 33.8045C127.128 34.1571 126.59 34.3565 125.99 34.4028C125.402 34.4446 124.796 34.3178 124.172 34.0222ZM124.495 33.3389C125.221 33.6824 125.902 33.7262 126.54 33.4704C127.181 33.2062 127.681 32.6944 128.041 31.9352L128.089 31.834C128.448 31.0748 128.525 30.3676 128.319 29.7124C128.117 29.0487 127.653 28.5451 126.928 28.2017C126.211 27.8622 125.527 27.8226 124.877 28.0828C124.24 28.3386 123.741 28.8462 123.382 29.6054L123.334 29.7066C122.974 30.4658 122.896 31.1772 123.098 31.8409C123.312 32.5001 123.778 32.9994 124.495 33.3389Z" fill="white"/>
    <path d="M130.589 37.3302L134.403 31.6962L135.076 32.1515L134.369 33.1948L134.508 33.289C134.852 33.0818 135.26 32.9695 135.734 32.9522C136.213 32.9272 136.754 33.1187 137.357 33.5269C137.766 33.8043 138.084 34.1431 138.309 34.5433C138.533 34.9436 138.629 35.3857 138.594 35.8695C138.573 36.3508 138.386 36.8504 138.036 37.3682L135.712 40.7996L135.017 40.3286L137.309 36.9436C137.728 36.3253 137.874 35.7763 137.748 35.2965C137.622 34.8167 137.3 34.4015 136.782 34.0509C136.203 33.6584 135.589 33.5246 134.941 33.6493C134.298 33.7664 133.715 34.2113 133.191 34.9842L131.284 37.8012L130.589 37.3302Z" fill="white"/>
    <path d="M138.89 43.4814L145.557 36.2988L146.173 36.8702L143.325 39.9382L143.448 40.0525C143.682 39.9645 143.938 39.9154 144.215 39.9051C144.505 39.8943 144.808 39.9524 145.123 40.0793C145.451 40.2058 145.793 40.4341 146.149 40.7643C146.512 41.1008 146.774 41.484 146.935 41.9139C147.096 42.3438 147.126 42.7917 147.025 43.2578C146.93 43.7302 146.67 44.1956 146.244 44.6539L143.425 47.6912L142.81 47.1197L145.591 44.1235C146.099 43.5763 146.324 43.0594 146.266 42.5728C146.215 42.0794 145.96 41.62 145.501 41.1946C144.988 40.7183 144.405 40.4891 143.752 40.5068C143.099 40.5245 142.455 40.8754 141.82 41.5595L139.506 44.0529L138.89 43.4814Z" fill="white"/>
    <path d="M147.95 53.4069C147.515 52.8581 147.249 52.289 147.151 51.6996C147.067 51.1117 147.144 50.5393 147.381 49.9822C147.619 49.4251 148.008 48.9323 148.55 48.5036L148.681 48.3993C149.23 47.9648 149.799 47.6988 150.389 47.6013C150.985 47.4979 151.554 47.554 152.093 47.7696C152.646 47.9867 153.125 48.3514 153.531 48.8636C153.925 49.3613 154.166 49.8843 154.255 50.4329C154.357 50.9829 154.298 51.5241 154.076 52.0565C153.862 52.583 153.485 53.0607 152.943 53.4894L152.592 53.7674L148.994 49.223C148.346 49.7721 147.989 50.3818 147.924 51.052C147.873 51.7237 148.079 52.3523 148.542 52.9377C148.936 53.4353 149.354 53.7297 149.795 53.8209C150.242 53.9194 150.688 53.9115 151.133 53.7971L151.339 54.5984C151.011 54.6798 150.651 54.7144 150.261 54.7022C149.883 54.6915 149.496 54.5934 149.099 54.4077C148.709 54.2162 148.326 53.8826 147.95 53.4069ZM149.574 48.7821L152.632 52.646C153.187 52.1591 153.482 51.622 153.518 51.0347C153.56 50.4417 153.367 49.8744 152.938 49.3329C152.515 48.7987 152.007 48.4805 151.415 48.3783C150.829 48.2704 150.216 48.405 149.574 48.7821Z" fill="white"/>
    <path d="M153.584 61.9922C153.257 61.416 153.086 60.8316 153.071 60.2388C153.069 59.6495 153.226 59.0937 153.541 58.5712C153.856 58.0487 154.326 57.61 154.951 57.255L155.072 57.1859C155.705 56.8263 156.323 56.6473 156.925 56.6488C157.535 56.6457 158.088 56.7982 158.585 57.1062C159.095 57.4177 159.514 57.8616 159.841 58.4378C160.164 59.0058 160.326 59.5469 160.328 60.0609C160.343 60.5784 160.238 61.0458 160.014 61.4632C159.802 61.884 159.522 62.2312 159.173 62.5047L158.619 61.8695C158.912 61.6491 159.142 61.384 159.31 61.0742C159.486 60.7597 159.567 60.4126 159.556 60.0329C159.552 59.6485 159.428 59.2413 159.184 58.8112C158.939 58.3811 158.619 58.0532 158.222 57.8277C157.834 57.5975 157.4 57.4846 156.919 57.4892C156.451 57.4973 155.97 57.642 155.475 57.9232L155.378 57.9785C154.883 58.2597 154.508 58.6014 154.253 59.0037C154.011 59.4094 153.886 59.8403 153.877 60.2964C153.876 60.7479 153.997 61.1887 154.241 61.6188C154.61 62.268 155.058 62.6685 155.584 62.8204C156.119 62.9676 156.652 62.9434 157.185 62.748L157.447 63.5492C157.024 63.6928 156.572 63.7461 156.089 63.709C155.619 63.6754 155.162 63.522 154.717 63.2488C154.284 62.9792 153.907 62.5603 153.584 61.9922ZM151.323 63.341C151.185 63.0975 151.096 62.8472 151.058 62.5901C151.016 62.3458 151.009 62.1079 151.039 61.8764L151.705 61.9163C151.682 62.1014 151.679 62.2855 151.697 62.4685C151.72 62.6595 151.782 62.8443 151.883 63.0229C151.98 63.1933 152.097 63.3146 152.235 63.3867C152.369 63.4715 152.513 63.4702 152.667 63.3826C152.805 63.3042 152.878 63.1875 152.887 63.0324C152.9 62.8854 152.854 62.7185 152.748 62.5319L152.499 62.0937L153.877 61.4876L154.202 62.0598L153.302 62.4586C153.481 62.7751 153.547 63.0705 153.499 63.3447C153.443 63.6236 153.265 63.8483 152.964 64.0189C152.753 64.1387 152.547 64.1811 152.344 64.1458C152.138 64.1233 151.95 64.0372 151.779 63.8874C151.604 63.7503 151.452 63.5682 151.323 63.341Z" fill="white"/>
    <path d="M157.495 70.4055C157.325 69.9606 157.245 69.5268 157.254 69.104C157.275 68.6866 157.394 68.3168 157.611 67.9946C157.828 67.6723 158.145 67.4316 158.564 67.2722C158.992 67.1096 159.385 67.0798 159.744 67.1829C160.102 67.286 160.42 67.4899 160.695 67.7944C160.971 68.0989 161.192 68.4693 161.358 68.9054L162.244 71.2345L162.754 71.0403C163.269 70.8444 163.614 70.5434 163.789 70.1373C163.964 69.7312 163.943 69.2446 163.728 68.6776C163.515 68.1193 163.206 67.7276 162.801 67.5023C162.408 67.2825 161.958 67.2038 161.453 67.2664L161.387 66.4228C161.802 66.3848 162.2 66.4227 162.583 66.5366C162.975 66.6472 163.329 66.8569 163.647 67.1656C163.972 67.471 164.235 67.8854 164.434 68.4087C164.74 69.2113 164.766 69.9103 164.513 70.5058C164.264 71.11 163.764 71.5548 163.014 71.8403L159.926 73.0154C159.664 73.115 159.58 73.2869 159.673 73.5312L159.907 74.1462L159.226 74.4051L158.908 73.5677C158.805 73.2973 158.802 73.0537 158.899 72.8369C159.005 72.6168 159.198 72.4537 159.477 72.3474L159.569 72.3126L159.519 72.1817C159.284 72.1414 159.04 72.0644 158.787 71.951C158.537 71.8462 158.301 71.6715 158.078 71.4268C157.855 71.1821 157.661 70.8416 157.495 70.4055ZM158.221 70.1889C158.477 70.8606 158.883 71.3251 159.44 71.5824C160.01 71.8451 160.665 71.8353 161.407 71.5532L161.564 71.4934L160.682 69.1774C160.51 68.7238 160.265 68.3826 159.948 68.1536C159.643 67.9301 159.286 67.8963 158.876 68.0523C158.466 68.2083 158.206 68.4821 158.095 68.8738C157.997 69.2708 158.039 69.7092 158.221 70.1889Z" fill="white"/>
    <path d="M161.601 87.4402C161.505 86.6245 161.617 85.9017 161.937 85.2717C162.258 84.651 162.861 84.2226 163.744 83.9865L163.994 84.7887C163.512 84.9209 163.14 85.1153 162.879 85.3717C162.628 85.6363 162.462 85.938 162.38 86.2766C162.299 86.6245 162.28 86.9839 162.324 87.3546C162.39 87.9108 162.554 88.3425 162.816 88.6499C163.088 88.9654 163.423 89.0996 163.822 89.0524C164.23 89.0042 164.493 88.8085 164.613 88.4655C164.733 88.1317 164.808 87.6952 164.838 87.1559L164.874 86.5032C164.898 86.0681 164.963 85.6703 165.071 85.3098C165.188 84.9482 165.364 84.6501 165.6 84.4155C165.836 84.1902 166.149 84.0545 166.538 84.0084C167.122 83.9393 167.608 84.1122 167.995 84.5268C168.384 84.9508 168.623 85.5428 168.713 86.3028C168.804 87.0721 168.701 87.7093 168.403 88.2144C168.116 88.7277 167.651 89.0835 167.007 89.2819L166.748 88.523C167.275 88.3667 167.628 88.0993 167.809 87.7208C167.991 87.3516 168.051 86.9074 167.99 86.3884C167.93 85.8786 167.784 85.4823 167.553 85.1994C167.322 84.9166 167.017 84.7976 166.637 84.8426C166.266 84.8865 166.009 85.0578 165.866 85.3567C165.732 85.6545 165.652 86.0493 165.626 86.5412L165.59 87.1939C165.571 87.6661 165.509 88.0963 165.404 88.4846C165.309 88.8718 165.144 89.1874 164.91 89.4312C164.677 89.6844 164.347 89.8362 163.921 89.8866C163.281 89.9623 162.757 89.7799 162.348 89.3396C161.948 88.8982 161.699 88.2651 161.601 87.4402Z" fill="white"/>
    <path d="M161.919 97.3792C161.94 96.6888 162.103 96.0868 162.407 95.5729C162.721 95.0687 163.144 94.6798 163.675 94.4062C164.215 94.1421 164.835 94.0205 165.534 94.0414L165.702 94.0464C166.402 94.0672 167.009 94.2254 167.523 94.5208C168.046 94.8259 168.445 95.2392 168.719 95.761C169.002 96.2923 169.133 96.9031 169.112 97.5935C169.092 98.2839 168.924 98.8811 168.611 99.3853C168.306 99.8992 167.883 100.288 167.343 100.552C166.812 100.826 166.197 100.952 165.497 100.931L165.329 100.926C164.63 100.905 164.018 100.743 163.495 100.437C162.981 100.142 162.582 99.7287 162.299 99.1973C162.025 98.6756 161.899 98.0696 161.919 97.3792ZM162.675 97.4017C162.651 98.204 162.884 98.8459 163.374 99.3274C163.873 99.8091 164.543 100.063 165.382 100.088L165.494 100.091C166.334 100.116 167.012 99.9027 167.53 99.4512C168.057 99 168.333 98.3733 168.356 97.571C168.38 96.778 168.142 96.136 167.644 95.6449C167.154 95.1634 166.489 94.9102 165.649 94.8852L165.537 94.8818C164.698 94.8568 164.014 95.0699 163.487 95.5211C162.969 95.9819 162.699 96.6087 162.675 97.4017Z" fill="white"/>
    <path d="M160.605 108.103C160.745 107.369 160.996 106.823 161.359 106.465C161.729 106.117 162.116 105.882 162.519 105.759L162.551 105.594L161.327 105.361L161.479 104.564L171.106 106.397L170.948 107.223L166.836 106.439L166.805 106.604C167.011 106.767 167.195 106.973 167.357 107.223C167.526 107.483 167.642 107.795 167.706 108.158C167.777 108.533 167.766 108.963 167.674 109.449C167.559 110.054 167.313 110.573 166.936 111.005C166.568 111.438 166.096 111.747 165.519 111.932C164.952 112.118 164.315 112.144 163.609 112.01L163.444 111.978C162.738 111.844 162.152 111.58 161.685 111.187C161.226 110.805 160.9 110.344 160.708 109.804C160.526 109.266 160.491 108.699 160.605 108.103ZM161.384 108.051C161.239 108.812 161.365 109.473 161.762 110.033C162.157 110.603 162.781 110.968 163.634 111.131L163.744 111.152C164.596 111.314 165.311 111.203 165.888 110.819C166.463 110.444 166.823 109.876 166.968 109.115C167.111 108.363 166.985 107.703 166.59 107.133C166.195 106.564 165.571 106.198 164.718 106.036L164.608 106.015C163.756 105.852 163.041 105.963 162.464 106.347C161.888 106.732 161.528 107.3 161.384 108.051Z" fill="white"/>
    <path d="M158.88 115.413L165.316 117.62L165.053 118.388L164.245 118.111L164.19 118.27C164.439 118.494 164.589 118.747 164.64 119.031C164.688 119.324 164.637 119.686 164.489 120.119L164.23 120.874L163.489 120.619L163.779 119.772C163.946 119.286 163.942 118.851 163.768 118.466C163.594 118.081 163.216 117.788 162.633 117.588L158.607 116.208L158.88 115.413Z" fill="white"/>
    <path d="M154.384 125.634C154.699 125.009 155.103 124.529 155.597 124.192C156.095 123.868 156.646 123.697 157.251 123.678C157.857 123.659 158.468 123.805 159.084 124.116L159.234 124.191C159.86 124.507 160.34 124.911 160.677 125.405C161.022 125.902 161.21 126.441 161.241 127.022C161.277 127.615 161.148 128.203 160.854 128.786C160.568 129.353 160.195 129.792 159.735 130.104C159.279 130.428 158.763 130.601 158.187 130.624C157.619 130.652 157.027 130.51 156.41 130.199L156.01 129.997L158.619 124.822C157.848 124.465 157.145 124.398 156.509 124.621C155.878 124.857 155.395 125.308 155.059 125.975C154.773 126.541 154.682 127.044 154.785 127.483C154.883 127.93 155.078 128.331 155.369 128.687L154.729 129.211C154.517 128.947 154.334 128.635 154.181 128.276C154.032 127.929 153.958 127.536 153.959 127.098C153.969 126.664 154.111 126.176 154.384 125.634ZM159.263 125.162L157.044 129.563C157.72 129.861 158.331 129.903 158.878 129.687C159.434 129.476 159.868 129.063 160.178 128.446C160.485 127.837 160.56 127.243 160.403 126.662C160.255 126.086 159.875 125.586 159.263 125.162Z" fill="white"/>
    <path d="M144.795 139.503C145.25 138.983 145.758 138.622 146.32 138.419C146.882 138.229 147.456 138.197 148.04 138.323C148.624 138.462 149.18 138.762 149.707 139.223L149.834 139.333C150.361 139.794 150.729 140.302 150.938 140.856C151.149 141.424 151.194 141.997 151.074 142.574C150.955 143.164 150.668 143.719 150.213 144.239C149.759 144.759 149.25 145.114 148.688 145.304C148.126 145.507 147.552 145.539 146.968 145.4C146.384 145.274 145.828 144.98 145.301 144.52L145.175 144.409C144.648 143.948 144.279 143.434 144.069 142.866C143.859 142.311 143.814 141.739 143.933 141.149C144.053 140.572 144.341 140.023 144.795 139.503ZM145.364 140.001C144.836 140.605 144.608 141.249 144.681 141.932C144.76 142.621 145.116 143.242 145.748 143.795L145.833 143.869C146.465 144.422 147.125 144.688 147.811 144.668C148.505 144.655 149.116 144.346 149.644 143.741C150.166 143.144 150.391 142.497 150.317 141.801C150.245 141.118 149.893 140.5 149.26 139.947L149.176 139.874C148.543 139.321 147.88 139.051 147.187 139.065C146.494 139.092 145.886 139.404 145.364 140.001Z" fill="white"/>
    <path d="M134.737 148.961L140.28 157.043L137.29 159.094C136.813 159.421 136.322 159.622 135.819 159.695C135.312 159.782 134.831 159.733 134.376 159.548C133.92 159.362 133.526 159.027 133.194 158.542L133.099 158.403C132.766 157.918 132.597 157.424 132.59 156.919C132.581 156.427 132.708 155.961 132.971 155.52C133.227 155.084 133.59 154.705 134.059 154.383L136.311 152.839L133.998 149.468L134.737 148.961ZM136.77 153.509L134.599 154.997C134.022 155.393 133.666 155.847 133.53 156.359C133.387 156.876 133.492 157.392 133.846 157.908L133.925 158.023C134.284 158.547 134.724 158.834 135.245 158.884C135.763 158.947 136.319 158.775 136.912 158.369L139.082 156.88L136.77 153.509Z" fill="white"/>
    <path d="M126.004 154.444L130.202 163.299L129.393 163.683L127.473 159.635L122.97 161.77L124.889 165.818L124.08 166.202L119.881 157.347L120.691 156.963L122.622 161.036L127.126 158.901L125.194 154.828L126.004 154.444Z" fill="white"/>
    <path d="M115.785 158.757L118.534 168.164L115.053 169.181C114.498 169.343 113.969 169.381 113.467 169.294C112.959 169.219 112.518 169.023 112.143 168.704C111.768 168.386 111.498 167.945 111.333 167.38L111.286 167.219C111.121 166.655 111.114 166.132 111.265 165.65C111.41 165.18 111.676 164.776 112.063 164.439C112.442 164.105 112.905 163.858 113.451 163.698L116.072 162.933L114.925 159.009L115.785 158.757ZM116.3 163.712L113.773 164.45C113.101 164.647 112.621 164.967 112.333 165.411C112.035 165.857 111.974 166.381 112.15 166.981L112.189 167.116C112.367 167.725 112.696 168.134 113.175 168.344C113.648 168.566 114.23 168.576 114.92 168.374L117.446 167.636L116.3 163.712Z" fill="white"/>
    <path d="M105.852 161.291L106.922 171.033L105.182 171.224L101.22 162.335L101.053 162.354L99.1149 171.89L97.3754 172.082L96.3051 162.34L97.1679 162.245L98.1801 171.458L98.3471 171.44L100.285 161.903L101.872 161.729L105.834 170.617L106.001 170.599L104.989 161.386L105.852 161.291Z" fill="white"/>
    <path d="M89.1359 161.705C89.8806 161.758 90.5218 161.953 91.0592 162.291C91.596 162.638 91.9972 163.115 92.2627 163.724C92.5277 164.341 92.6294 165.083 92.5679 165.949L92.4112 168.155C92.3187 169.459 91.9088 170.422 91.1816 171.044C90.4444 171.674 89.5032 171.949 88.3581 171.868C87.2223 171.787 86.3883 171.41 85.856 170.736C85.3144 170.061 85.081 169.198 85.1557 168.146L85.1607 168.076L86.0544 168.139L86.0475 168.237C86.0111 168.749 86.0675 169.207 86.2166 169.61C86.3651 170.023 86.6222 170.355 86.9881 170.606C87.3439 170.865 87.8198 171.015 88.4156 171.058C89.3187 171.122 90.0457 170.897 90.5968 170.385C91.1385 169.871 91.4448 169.116 91.5155 168.12L91.6761 165.858C91.7469 164.861 91.5504 164.071 91.0866 163.486C90.6136 162.9 89.9255 162.575 89.0225 162.511C88.138 162.448 87.4682 162.658 87.0129 163.141C86.5576 163.623 86.2992 164.297 86.2377 165.163L86.2179 165.442L89.4437 165.671L89.3882 166.453L85.2965 166.163L85.6168 161.652L86.4268 161.709L86.3484 162.813L86.516 162.825C86.6436 162.609 86.8171 162.406 87.0364 162.216C87.2551 162.035 87.5363 161.896 87.8801 161.799C88.2145 161.701 88.6331 161.67 89.1359 161.705Z" fill="white"/>
    </svg>
    